<?xml version="1.0" standalone="no"?>
<!DOCTYPE svg PUBLIC "-//W3C//DTD SVG 20010904//EN"
 "http://www.w3.org/TR/2001/REC-SVG-20010904/DTD/svg10.dtd">
<svg version="1.0" xmlns="http://www.w3.org/2000/svg"
 width="500.000000pt" height="500.000000pt" viewBox="0 0 500.000000 500.000000"
 preserveAspectRatio="xMidYMid meet">
<metadata>
Created by potrace 1.16, written by Peter Selinger 2001-2019
</metadata>
<g transform="translate(0.000000,500.000000) scale(0.100000,-0.100000)"
fill="#000000" stroke="none">
<path d="M3081 4256 c-6 -7 -9 -15 -6 -18 3 -3 -1 -11 -10 -18 -16 -13 -20
-42 -7 -54 7 -7 8 -11 11 -37 0 -5 5 -8 9 -5 5 3 16 -6 26 -19 10 -14 23 -22
29 -18 5 3 7 1 3 -5 -3 -6 -2 -13 4 -17 18 -11 8 -105 -11 -105 -5 0 -15 14
-24 30 -17 33 -55 42 -55 13 0 -37 13 -64 27 -59 8 3 11 1 8 -4 -3 -6 -3 -10
2 -11 4 0 18 -2 31 -3 12 -2 22 1 22 6 0 5 5 6 11 3 16 -11 48 30 55 69 6 39
-11 80 -28 70 -7 -4 -8 -3 -4 4 4 6 -10 27 -33 47 -38 34 -38 36 -29 75 11 43
27 52 35 20 3 -11 9 -20 13 -20 5 0 6 -9 3 -20 -4 -14 0 -20 12 -20 14 0 16 7
11 46 -3 26 -8 49 -11 52 -11 11 -85 10 -94 -2z"/>
<path d="M2593 4100 c0 -116 3 -162 12 -170 26 -22 33 14 32 167 -1 94 2 155
8 157 6 3 -4 5 -21 5 l-30 1 -1 -160z"/>
<path d="M2824 4213 c-24 -55 -25 -207 -1 -251 16 -30 22 -32 59 -30 63 5 81
36 93 163 5 54 -12 120 -38 142 -14 12 -18 13 -12 3 6 -12 5 -13 -6 -2 -7 6
-28 12 -46 12 -28 0 -35 -5 -49 -37z"/>
<path d="M2092 3683 c-6 -16 -13 -36 -16 -46 -3 -10 -10 -16 -15 -12 -14 8
-26 -19 -45 -105 -10 -41 -22 -87 -27 -101 -12 -30 -89 -109 -89 -91 0 18 -27
15 -34 -4 -15 -38 -8 -45 25 -28 29 15 34 14 80 -5 27 -11 51 -17 53 -13 2 4
9 36 16 72 6 36 27 124 46 196 19 71 34 138 34 147 0 26 -16 20 -28 -10z"/>
<path d="M2864 3377 c-13 -29 -6 -67 11 -67 22 0 65 -22 60 -31 -3 -4 -18 -4
-35 1 -28 8 -59 -8 -44 -23 4 -3 -4 -11 -17 -17 -13 -6 -29 -22 -36 -37 -11
-23 -11 -25 10 -20 12 2 30 8 40 12 12 5 17 3 17 -9 0 -9 5 -16 10 -16 6 0 10
8 8 18 -2 9 2 16 8 15 6 -1 17 9 24 22 9 16 22 25 37 25 15 0 22 -4 17 -11 -4
-7 -1 -10 7 -7 19 6 25 78 7 78 -8 0 -20 -6 -27 -12 -11 -11 -13 -10 -7 0 4 7
2 28 -4 48 -10 28 -14 33 -26 23 -8 -6 -14 -18 -14 -26 0 -8 -4 -11 -10 -8 -5
3 -10 17 -10 30 0 32 -15 39 -26 12z"/>
<path d="M1405 3358 c-41 -49 -47 -133 -10 -133 17 0 20 7 20 50 0 44 3 50 22
53 16 2 23 -3 28 -26 7 -34 58 -76 83 -68 9 3 31 8 47 10 28 4 148 45 133 46
-4 0 -3 14 2 31 5 18 7 29 3 25 -3 -3 -12 -1 -18 4 -9 8 -14 6 -19 -5 -8 -21
-26 -19 -26 4 0 14 -10 21 -36 26 -20 3 -39 4 -42 1 -3 -3 0 -6 7 -6 7 0 9 -4
6 -10 -8 -14 -58 -13 -73 2 -6 6 -32 14 -57 18 -42 6 -48 5 -70 -22z"/>
<path d="M3150 3326 c0 -8 -6 -16 -14 -19 -18 -7 -15 -59 3 -65 8 -3 -1 -15
-20 -31 -36 -31 -35 -60 3 -62 13 0 18 -3 11 -5 -7 -3 -10 -11 -7 -18 3 -7 -2
-19 -11 -26 -14 -12 -18 -11 -25 0 -6 9 -4 17 3 22 7 5 -1 8 -18 8 -25 0 -31
5 -32 22 -2 16 0 19 6 9 6 -9 11 -10 15 -2 4 6 2 11 -3 11 -20 0 -26 2 -38 11
-21 18 -10 -97 12 -121 16 -18 16 -20 2 -20 -14 0 -17 -11 -17 -69 l0 -70 41
-3 c35 -3 44 -8 59 -35 l17 -32 29 18 c16 10 35 16 43 13 8 -3 11 0 7 6 -3 6
0 12 6 15 22 7 81 -11 90 -28 6 -10 17 -14 28 -10 25 8 34 -10 15 -28 -19 -20
-19 -25 3 -23 12 1 16 -5 14 -22 -5 -48 -51 -66 -79 -32 -10 12 -11 11 -6 -8
l6 -23 -36 18 c-38 19 -47 33 -22 33 20 0 19 10 -2 26 -24 18 -33 17 -33 -2 0
-8 -5 -12 -11 -9 -6 4 -8 13 -5 21 3 9 -2 14 -14 14 -25 0 -25 -2 0 -73 11
-31 20 -67 20 -80 0 -36 10 -39 47 -16 29 18 43 20 98 14 54 -5 65 -4 65 8 0
8 -8 14 -17 13 -22 -1 -20 32 5 87 14 31 21 37 40 32 17 -4 22 -1 22 13 0 13
-12 23 -40 32 -55 18 -75 42 -60 71 7 12 15 17 19 12 3 -6 14 -7 26 -2 11 4
14 8 8 8 -7 1 -13 6 -13 12 0 5 4 8 9 5 5 -3 12 1 15 10 4 9 13 14 21 10 22
-8 31 39 11 59 -9 9 -16 20 -16 25 0 5 -16 2 -35 -6 -50 -21 -46 2 8 43 17 13
36 20 50 16 12 -2 32 -7 45 -10 15 -4 22 -1 22 9 0 21 -79 50 -117 42 -19 -4
-33 -1 -38 5 -5 9 -10 9 -20 1 -8 -7 -23 -9 -35 -5 -24 8 -27 35 -4 35 12 0
14 4 7 13 -5 6 -8 27 -6 46 4 41 -11 61 -46 61 -14 0 -45 9 -68 20 -33 15 -43
16 -43 6z m121 -108 c1 -7 0 -21 -1 -31 -2 -20 52 -137 73 -158 16 -17 6 -59
-15 -59 -10 0 -10 -2 -1 -8 8 -5 10 -17 5 -37 l-8 -29 -17 24 c-9 14 -17 20
-17 15 -1 -6 -15 6 -32 25 l-30 35 7 -39 c6 -36 5 -38 -9 -27 -13 11 -19 11
-31 1 -10 -9 -15 -9 -15 -1 0 6 -6 11 -14 11 -18 0 -29 17 -21 30 5 8 11 7 21
-1 11 -9 14 -7 14 15 0 17 -5 26 -16 26 -13 0 -14 3 -5 14 7 8 20 12 30 9 17
-4 30 15 35 52 0 6 6 10 13 10 6 0 15 4 20 9 5 5 2 6 -6 1 -11 -6 -13 -3 -8
14 4 18 2 21 -14 16 -26 -9 -25 21 1 35 12 6 20 21 20 35 0 25 19 36 21 13z"/>
<path d="M1900 3240 c0 -5 -13 -7 -30 -3 -17 3 -30 2 -29 -3 1 -5 -2 -20 -8
-34 -6 -14 -12 -34 -15 -45 -2 -12 -11 -19 -21 -19 -13 2 -16 -3 -12 -17 4
-10 2 -20 -4 -20 -26 -3 -30 -4 -37 -11 -11 -12 -44 -10 -44 2 0 6 6 10 13 8
7 -2 14 0 15 5 6 19 0 27 -19 27 l-21 0 21 34 c29 46 27 60 -7 53 -16 -3 -39
0 -53 7 -21 11 -27 10 -47 -12 -26 -27 -22 -44 4 -17 14 13 19 14 25 3 5 -8 3
-17 -5 -23 -22 -17 -24 -50 -4 -50 26 0 41 -20 33 -45 -6 -18 -12 -21 -37 -16
-18 3 -27 2 -23 -4 3 -6 0 -10 -7 -11 -7 -1 3 -5 22 -10 19 -5 46 -6 59 -3 14
3 27 0 32 -8 14 -22 10 -28 -18 -29 -25 0 -26 -1 -8 -9 11 -4 33 -5 49 -2 21
4 33 0 42 -13 12 -16 19 -16 56 -7 112 28 188 43 195 39 4 -3 7 39 5 94 -3 87
-6 99 -21 99 -10 0 -28 11 -41 25 -23 25 -60 34 -60 15z"/>
<path d="M2320 3228 c-1 -2 -7 -43 -14 -92 -8 -50 -12 -95 -9 -102 5 -13 141
-28 166 -19 8 4 43 -1 77 -9 34 -9 65 -14 69 -12 4 3 25 6 47 7 36 2 40 5 36
25 -5 28 77 120 99 112 8 -3 23 -22 34 -42 19 -35 19 -38 3 -65 -18 -33 -8
-51 28 -51 12 0 38 -7 58 -15 41 -17 39 -21 54 98 l9 68 -24 -6 c-18 -4 -23
-1 -23 15 0 13 -7 20 -20 20 -25 0 -26 -18 -3 -36 10 -7 15 -15 12 -19 -4 -3
-42 12 -85 33 -128 64 -144 67 -314 67 -110 0 -159 4 -168 13 -12 10 -31 17
-32 10z"/>
<path d="M1890 2858 c-15 -7 -93 -12 -197 -12 -94 -1 -169 -4 -167 -7 2 -4 35
-10 74 -14 39 -4 72 -10 74 -14 2 -3 33 -7 68 -9 34 -1 85 -5 111 -8 47 -6 48
-7 42 -35 -5 -23 -4 -28 9 -23 8 3 25 -1 38 -10 12 -9 31 -16 41 -16 13 0 17
-5 13 -15 -3 -9 3 -23 14 -32 26 -22 25 -39 -1 -54 -16 -8 -18 -14 -10 -22 9
-9 24 1 62 40 49 52 57 80 17 68 -44 -15 -96 25 -55 41 8 3 13 19 13 37 -1 18
3 45 7 60 7 27 6 28 -20 25 -23 -2 -27 -7 -25 -25 4 -32 -11 -29 -41 7 -28 33
-31 34 -67 18z"/>
<path d="M2386 2772 c-4 -3 -26 -6 -49 -5 -23 1 -34 -1 -24 -3 19 -6 21 -13 7
-34 -8 -12 -10 -12 -16 3 -8 23 -23 22 -17 -2 3 -13 18 -21 46 -26 31 -6 36
-9 20 -12 -25 -5 -30 -18 -10 -26 6 -3 -2 -8 -20 -12 -26 -6 -32 -12 -33 -34
0 -14 -3 -56 -6 -93 -6 -66 -5 -68 21 -80 22 -10 28 -9 36 3 12 19 11 46 -1
54 -37 23 40 43 94 25 20 -6 36 -18 36 -26 0 -8 7 -14 15 -14 18 0 20 -16 3
-23 -10 -4 -9 -8 2 -16 12 -9 12 -13 2 -19 -7 -5 -10 -15 -7 -23 8 -20 -45
-49 -89 -49 -29 0 -38 5 -50 28 -40 77 -67 60 -83 -50 -17 -115 -16 -123 9
-135 l23 -10 -23 -12 c-20 -11 -22 -19 -22 -96 0 -54 4 -85 12 -87 14 -5 20
-38 7 -38 -17 0 -9 -25 12 -38 22 -14 22 -27 5 -127 -2 -11 1 -28 5 -37 8 -15
14 -14 59 14 28 17 50 33 50 35 0 3 -12 4 -27 3 -72 -5 -91 15 -53 56 35 36
85 33 105 -6 17 -33 20 -54 5 -45 -5 3 -10 2 -10 -4 0 -5 7 -14 15 -19 16 -8
11 -42 -5 -42 -5 0 -4 -14 1 -32 6 -22 5 -34 -2 -39 -7 -4 3 -10 21 -14 24 -5
29 -10 19 -16 -11 -7 -10 -9 4 -9 11 0 17 -8 17 -25 0 -22 4 -25 30 -23 17 1
32 9 35 18 3 10 18 15 47 16 23 0 43 5 46 12 2 7 18 12 35 12 33 0 66 15 56
25 -4 3 -38 0 -78 -7 -55 -9 -74 -9 -83 0 -9 9 -8 12 8 12 10 0 33 9 50 19 20
12 36 16 45 10 8 -5 27 -9 43 -9 26 0 28 3 24 30 -4 28 16 52 24 28 2 -6 9 -8
16 -4 9 5 6 15 -10 36 -12 16 -25 27 -29 24 -4 -2 -11 5 -14 16 -5 17 -9 19
-21 9 -8 -7 -13 -18 -10 -25 2 -6 -1 -20 -9 -30 -11 -16 -12 -15 -9 15 2 19
10 41 16 49 11 13 10 15 -4 10 -10 -4 -19 -1 -22 9 -10 24 -1 26 33 8 17 -8
31 -11 31 -6 0 5 -10 13 -22 17 -20 6 -17 9 27 24 28 10 53 15 58 13 4 -2 7 0
7 5 0 5 13 15 29 22 21 8 30 20 33 41 3 17 2 32 -2 34 -4 2 -3 32 1 67 5 35
15 159 23 276 14 198 14 214 -2 232 -24 29 -29 25 -37 -26 -5 -35 -3 -50 9
-63 9 -10 16 -31 16 -47 -1 -25 -2 -27 -11 -11 -8 14 -18 17 -36 12 -18 -4
-37 1 -65 20 -22 15 -37 21 -33 13 3 -7 0 -5 -9 6 -17 21 -6 56 19 56 8 0 15
5 15 11 0 5 -4 8 -9 4 -6 -3 -15 4 -21 15 -9 16 -18 20 -38 16 -33 -7 -65 15
-56 38 3 9 10 16 15 16 5 0 9 4 9 9 0 5 -16 7 -35 4 -27 -4 -40 1 -61 22 -15
15 -23 32 -20 41 3 9 -1 17 -12 20 -9 3 -25 10 -35 15 -14 8 -22 6 -32 -7 -9
-14 -16 -15 -26 -8 -20 16 -46 24 -53 16z m401 -440 c17 -12 38 -22 47 -22 9
0 16 -4 16 -10 0 -5 -5 -10 -10 -10 -7 0 -7 -7 1 -22 7 -13 9 -40 5 -72 -4
-28 -9 -62 -10 -76 -4 -37 -5 -40 -15 -40 -5 0 -8 8 -7 17 1 13 -35 41 -61 49
-2 0 2 15 7 34 10 36 5 54 -10 30 -7 -12 -12 -12 -22 -2 -15 15 -108 16 -108
1 0 -5 -4 -8 -9 -4 -5 3 -16 -4 -24 -15 -7 -11 -17 -17 -21 -13 -4 4 -10 3
-14 -2 -4 -6 -17 -15 -28 -22 -19 -10 -23 -9 -27 7 -5 20 34 47 52 36 6 -4 11
0 11 11 0 15 2 16 10 3 8 -12 13 -11 34 9 30 29 93 43 135 31 29 -8 31 -7 31
18 0 18 -3 23 -8 14 -9 -13 -149 -15 -157 -1 -6 9 15 26 40 31 11 2 19 10 17
17 -2 9 2 9 20 -1 33 -17 47 -18 41 -2 -3 8 0 14 6 14 6 0 11 8 11 18 0 10 3
13 8 7 4 -6 21 -21 39 -33z m-313 -187 c-4 -10 0 -15 14 -15 12 0 23 4 26 8 4
7 68 7 141 0 27 -3 30 -6 28 -34 -2 -17 -9 -44 -18 -60 -9 -19 -11 -30 -4 -35
7 -4 5 -8 -5 -12 -8 -3 -18 -2 -20 2 -3 5 -24 3 -46 -2 -33 -9 -45 -8 -69 6
-18 11 -31 13 -34 7 -3 -6 -4 -5 -3 2 2 7 -5 24 -15 37 -18 23 -26 91 -12 104
12 12 22 7 17 -8z"/>
<path d="M1297 2743 c-12 -19 95 -57 158 -56 33 1 52 -1 43 -4 -19 -5 -25 -33
-8 -33 6 0 10 4 10 8 0 4 10 8 23 9 12 0 16 -1 10 -4 -18 -7 -16 -33 3 -33 8
0 12 5 9 10 -3 6 1 13 9 16 9 3 16 12 16 18 0 7 8 13 18 13 9 -1 80 1 157 2
179 4 137 14 -158 36 -120 9 -233 19 -251 22 -18 3 -36 1 -39 -4z"/>
<path d="M1867 2593 c-15 -14 -6 -51 16 -67 l22 -15 -25 -22 c-14 -12 -26 -16
-28 -10 -2 7 -18 9 -40 6 -20 -3 -55 -7 -77 -9 -26 -3 -39 -8 -37 -17 2 -6 -2
-15 -8 -19 -8 -5 -3 -16 15 -34 32 -32 35 -32 81 -1 28 19 40 22 55 14 10 -5
19 -7 19 -3 0 3 7 1 15 -6 12 -10 15 -9 15 6 0 11 7 28 15 38 20 27 19 73 -2
85 -14 8 -15 13 -5 35 10 23 9 26 -7 26 -10 0 -21 -3 -24 -7z"/>
<path d="M1268 2338 c-1 -26 -2 -55 -2 -63 -1 -8 4 -15 9 -16 6 0 16 -5 23
-11 9 -8 12 -5 12 11 0 13 6 21 16 21 13 0 15 -7 10 -31 -5 -27 -4 -30 8 -19
8 6 13 17 10 24 -3 8 2 16 10 19 10 4 16 1 16 -8 0 -20 12 -19 66 6 56 27 53
45 -8 41 -43 -3 -45 -2 -59 33 -13 35 -17 37 -61 39 l-48 2 -2 -48z"/>
<path d="M1528 2289 c16 -17 15 -29 -2 -29 -7 0 -25 -12 -40 -26 -14 -15 -26
-22 -26 -15 0 7 -9 9 -27 5 -33 -8 -76 -35 -69 -42 3 -3 12 0 19 6 10 9 18 8
32 -2 16 -12 21 -11 34 2 15 14 16 13 19 -13 2 -17 -3 -34 -15 -45 -21 -20
-114 -60 -138 -60 -12 0 -15 -5 -11 -16 3 -9 6 -22 6 -30 0 -7 13 -26 30 -40
36 -32 46 -60 30 -79 -21 -25 -46 -17 -84 25 -38 42 -43 38 -30 -29 5 -24 13
-33 38 -39 24 -6 33 -16 41 -44 13 -46 19 -52 35 -33 8 10 9 15 1 15 -6 0 -11
7 -11 15 0 17 30 35 59 35 11 0 28 11 39 25 11 14 29 25 40 25 21 0 62 43 62
64 0 7 7 21 16 32 15 18 15 18 9 -3 -8 -31 1 -29 42 7 18 17 38 30 43 30 21 0
8 -23 -40 -73 -40 -41 -47 -53 -33 -55 10 -2 23 -9 28 -14 7 -8 4 -9 -9 -4
-25 9 -66 -35 -59 -64 5 -18 10 -15 47 27 47 53 120 103 151 103 12 0 31 -10
43 -23 28 -30 28 -43 1 -24 -18 13 -24 13 -56 -6 -42 -25 -102 -84 -153 -147
-33 -43 -35 -43 -40 -19 -5 21 -7 22 -13 6 -11 -29 -8 -37 13 -37 11 0 20 5
20 10 0 15 28 12 37 -3 4 -8 31 -17 58 -21 36 -4 68 -19 115 -51 36 -25 72
-45 81 -45 18 0 79 66 79 85 0 16 45 136 66 177 9 16 13 32 10 35 -3 3 -10 -7
-16 -23 -13 -35 -74 -94 -96 -94 -8 0 -13 -4 -9 -9 3 -5 0 -13 -5 -16 -8 -5
-9 4 -5 29 7 35 -7 52 -18 24 -4 -9 -6 -8 -6 2 0 8 9 35 20 60 12 25 27 62 35
84 13 35 13 38 -4 31 -74 -31 -70 -31 -101 3 -17 18 -35 32 -40 32 -6 0 -11 7
-11 16 0 11 6 13 19 9 14 -4 21 0 26 13 6 20 119 102 140 102 18 0 6 51 -17
77 -17 18 -24 20 -39 10 -10 -6 -21 -24 -24 -39 -8 -35 -25 -37 -25 -2 0 16
-4 23 -11 18 -6 -3 -9 -17 -6 -30 3 -20 1 -23 -17 -18 -15 3 -28 -3 -44 -21
-23 -26 -46 -26 -36 -1 6 16 -32 46 -58 46 -9 0 -22 9 -29 21 -7 15 -18 20
-34 17 -14 -3 -26 2 -34 14 -10 16 -8 18 13 18 13 0 29 7 36 15 11 13 8 15
-21 15 -19 0 -45 3 -59 6 -21 6 -23 4 -12 -7z"/>
<path d="M3250 1825 c0 -8 -8 -15 -18 -15 -11 0 -27 -9 -37 -20 -13 -15 -22
-17 -36 -10 -10 6 -16 17 -13 24 4 10 -3 14 -23 13 -36 -2 -56 -22 -48 -46 7
-23 31 -31 60 -20 12 4 25 1 33 -7 11 -12 9 -14 -10 -15 -48 -3 -53 -4 -56
-21 -4 -19 22 -25 33 -8 7 12 54 14 56 3 7 -44 3 -58 -18 -61 -13 -2 -23 -9
-23 -16 0 -22 12 -25 35 -10 20 13 23 13 27 -3 3 -11 26 -25 55 -36 50 -18 51
-18 97 4 25 11 46 25 46 30 0 5 11 9 25 9 21 0 23 3 16 22 -6 17 -18 23 -49
26 -37 3 -43 0 -53 -22 -11 -24 -13 -24 -25 -8 -9 12 -9 21 -2 29 8 10 6 13
-5 13 -8 0 -18 -7 -21 -16 -9 -23 -20 -9 -21 24 0 17 -6 27 -15 28 -33 2 -38
5 -43 23 -4 15 2 20 29 26 34 6 42 22 28 59 -8 20 -24 21 -24 1z"/>
<path d="M3463 1746 c-22 -12 -22 -12 -2 -42 10 -16 19 -46 19 -68 0 -52 21
-118 35 -112 6 2 17 -5 23 -15 7 -10 20 -19 30 -19 24 1 52 24 52 44 0 9 5 16
10 16 23 0 8 19 -17 22 -17 2 -29 10 -31 21 -4 22 30 23 49 1 12 -14 14 -13
22 8 l10 23 7 -25 c11 -36 12 -88 1 -95 -6 -3 -9 -14 -8 -25 1 -17 6 -15 39
17 l38 37 -22 23 c-19 20 -20 26 -8 33 17 10 17 10 -37 38 -25 12 -45 17 -48
12 -7 -11 -118 -14 -128 -3 -8 7 30 36 51 40 26 3 27 15 5 33 -24 19 -32 36
-10 24 8 -5 8 -2 -2 9 -15 19 -46 21 -78 3z"/>
<path d="M2007 1493 c-10 -12 -13 -28 -10 -45 3 -16 1 -28 -4 -28 -14 0 -33
-47 -27 -65 4 -9 15 -20 25 -25 23 -13 76 -13 84 0 4 7 12 7 24 0 24 -12 35 0
14 15 -21 16 -27 65 -7 65 8 0 14 5 14 10 0 11 -20 13 -44 4 -13 -5 -14 -9 -5
-20 13 -16 6 -30 -9 -20 -17 10 -42 74 -36 90 9 23 45 21 37 -1 -5 -14 -3 -16
7 -6 18 17 5 43 -23 43 -13 0 -31 -8 -40 -17z"/>
</g>
</svg>
