<?xml version="1.0" standalone="no"?>
<!DOCTYPE svg PUBLIC "-//W3C//DTD SVG 20010904//EN"
 "http://www.w3.org/TR/2001/REC-SVG-20010904/DTD/svg10.dtd">
<svg version="1.0" xmlns="http://www.w3.org/2000/svg"
 width="125.000000pt" height="125.000000pt" viewBox="0 0 125.000000 125.000000"
 preserveAspectRatio="xMidYMid meet">
<metadata>
Created by potrace 1.16, written by Peter Selinger 2001-2019
</metadata>
<g transform="translate(0.000000,125.000000) scale(0.100000,-0.100000)"
fill="#000000" stroke="none">
<path d="M882 999 c-26 -8 -37 -20 -52 -54 l-19 -45 -325 0 c-366 0 -363 1
-372 -75 -4 -32 7 -73 60 -214 l65 -174 -24 -23 c-47 -43 -47 -141 0 -181 40
-35 115 -32 157 6 27 24 32 36 32 72 0 24 -3 56 -8 72 l-8 27 156 0 c146 0
156 -1 147 -17 -24 -47 -16 -119 18 -154 25 -25 37 -29 81 -29 44 0 56 4 81
29 25 26 29 37 29 86 0 50 -4 60 -29 84 l-30 28 55 149 c30 82 62 168 70 192
14 37 19 42 47 42 50 0 106 19 117 40 19 36 12 95 -15 120 -22 21 -37 24 -113
27 -48 1 -102 -2 -120 -8z m206 -31 c17 -17 15 -53 -5 -69 -9 -8 -43 -16 -75
-19 l-60 -5 -44 -120 c-25 -66 -54 -147 -64 -179 -11 -33 -27 -70 -35 -83
l-15 -23 -249 0 c-187 0 -251 3 -259 13 -6 6 -27 57 -47 112 -20 55 -48 130
-62 168 -23 63 -24 69 -9 92 l16 25 334 0 334 0 7 28 c16 66 27 72 128 72 59
0 97 -4 105 -12z m-754 -569 c33 -26 35 -73 4 -106 -27 -29 -57 -29 -92 -2
-52 41 -20 124 50 128 6 1 23 -8 38 -20z m501 -4 c67 -66 -25 -168 -93 -105
-32 30 -30 82 4 109 35 27 59 26 89 -4z"/>
<path d="M280 768 c0 -7 15 -53 33 -103 l32 -90 194 0 194 0 33 90 c19 50 34
96 34 103 0 9 -59 12 -260 12 -201 0 -260 -3 -260 -12z m459 -60 c0 -7 -8 -35
-18 -63 l-18 -50 -161 -3 -160 -2 -21 55 c-12 31 -21 60 -21 65 0 6 79 10 200
10 154 0 200 -3 199 -12z"/>
</g>
</svg>
